<svg width="1190" height="8714" viewBox="0 0 1190 8714" fill="none" xmlns="http://www.w3.org/2000/svg">
<path d="M314.884 1C462.237 29.0455 722.938 159.423 586.92 456.569C416.898 828.002 240.874 780.803 146.862 938.816C52.8494 1096.83 270.878 1427.22 430.899 1523.67C452.902 1540.08 494.908 1566.76 480.906 1577.02C466.904 1587.28 396.895 1611.91 430.899 1613.96C464.904 1616.01 510.91 1638.59 480.906 1638.59C450.902 1638.59 390.894 1646.79 430.899 1659.11C470.905 1671.42 510.91 1691.94 480.906 1700.15V2506.63C473.239 2516.21 466.704 2540.08 501.909 2558.96C545.915 2582.56 495.908 2598.98 472.905 2597.95C449.902 2596.92 439.901 2630.78 487.907 2630.78C535.913 2630.78 540.914 2669.77 510.91 2674.9C480.906 2680.03 473.905 2695.42 487.907 2711.84C501.909 2728.26 -15.1594 2742.62 188.868 3185.88C242.875 3276.17 492.908 3224.87 501.909 3272.07C510.91 3319.27 502.909 3380.83 487.907 3403.4C472.905 3425.98 457.903 3432.13 472.905 3471.12C487.907 3510.11 530.913 3499.85 501.909 3583.99C478.706 3651.3 472.905 3830.93 472.905 3912.33C469.571 3923.96 467.904 3955.83 487.907 3990.31C512.91 4033.4 564.917 4012.88 487.907 4058.03C410.897 4103.17 395.895 4084.7 448.902 4105.23C501.909 4125.75 530.913 4121.64 501.909 4146.27C472.905 4170.89 444.901 4183.21 458.903 4201.68C472.905 4220.14 462.904 4458.19 626.926 4464.35C790.947 4470.5 1024.98 4731.12 688.934 4979.43C602.922 5036.89 258.877 4977.37 94.8551 5079.98C-69.1665 5182.59 18.8451 5533.5 268.878 5554.02C518.911 5574.54 694.934 6060.89 474.905 6218.9C254.876 6376.92 142.861 6495.94 230.873 6676.52C318.885 6857.11 894.961 6770.92 710.937 7240.85C526.912 7710.79 36.8474 7398.87 2.84289 8051.44C-31.1616 8704.01 406.896 8718.38 1189 8712.22" stroke="white"/>
</svg>
